# xmcd CD database file
#
# Track frame offsets:
#	150
#	23747
#	50749
#	69842
#	91171
#	112188
#	138760
#	162076
#	180722
#	198368
#
# Disc length: 2975 seconds
#
# Revision: 0
# Processed by: cddbd v1.5.2PL0 Copyright (c) Steve Scherf et al.
# Submitted via: CDex 2.21
#
DISCID=7f0b9d0a
DTITLE=Janysett McPherson - Trs Almas
DYEAR=2011
DGENRE=Jazz
TTITLE0=Belle ile en mer
TTITLE1=Porque tu existes
TTITLE2=Busca tu fe
TTITLE3=Alby
TTITLE4=Tres Almas
TTITLE5=Jamais dormir
TTITLE6=Calla
TTITLE7=La stella
TTITLE8=Dices
TTITLE9=J'ai vu
EXTD=YEAR: 2011
EXTT0=
EXTT1=
EXTT2=
EXTT3=
EXTT4=
EXTT5=
EXTT6=
EXTT7=
EXTT8=
EXTT9=
PLAYORDER=
